<?xml version="1.0"?>
<svg width="65" height="84" xmlns="http://www.w3.org/2000/svg">

 <g>
  <title>background</title>
  <rect fill="none" id="canvas_background" height="86" width="67" y="-1" x="-1"/>
 </g>
 <g>
  <title>Layer 1</title>
  <g id="svg_1" fill="#FEFEFE">
   <path d="m0,15.1272l27.694401,0l0,8.1454l-27.694401,0l0,-8.1454zm0,-15.1272l27.694401,0l0,8.14541l-27.694401,0l0,-8.14541zm60.682899,30.138l-60.682899,0l0,8.145401l58.821098,0l1.861801,-8.145401zm0.116299,15.127201l-60.799198,0l0,8.145397l58.821098,0l1.9781,-8.145397zm-0.116299,38.399799l-60.682899,0l0,-8.145401l58.821098,0l1.861801,8.145401zm0.116299,-15.127197l-60.799198,0l0,-8.145405l58.821098,0l1.9781,8.145405z" stroke="null" id="svg_2"/>
  </g>
 </g>
</svg>