<svg xmlns="http://www.w3.org/2000/svg" xmlns:xlink="http://www.w3.org/1999/xlink" version="1.1" x="0px" y="0px" width="100px" height="100px" viewBox="0 0 100 100" enable-background="new 0 0 100 100" xml:space="preserve">
<g id="Captions">
</g>
<g id="Your_Icon">
	<path d="M96.891,20c0-0.005,0-0.01,0-0.015c0-0.019,0-0.038,0-0.058c-0.003-0.038-0.009-0.076-0.012-0.116   c-0.007-0.038-0.014-0.077-0.023-0.116c-0.004-0.037-0.013-0.076-0.021-0.113c-0.006-0.015-0.009-0.032-0.013-0.049   c-0.003-0.004-0.003-0.007-0.005-0.011c-0.004-0.018-0.01-0.036-0.017-0.054c-0.011-0.038-0.021-0.075-0.037-0.114   c-0.013-0.038-0.026-0.076-0.04-0.115c-0.017-0.038-0.034-0.078-0.051-0.116c-0.014-0.028-0.027-0.057-0.039-0.086   c-0.004-0.01-0.009-0.021-0.019-0.033c-0.018-0.04-0.038-0.08-0.062-0.121c-0.022-0.04-0.046-0.081-0.068-0.121   c-0.026-0.042-0.054-0.084-0.081-0.125c-0.029-0.045-0.059-0.089-0.09-0.131c-0.004-0.008-0.011-0.015-0.015-0.022   c-0.005-0.004-0.007-0.008-0.013-0.011c-0.022-0.035-0.048-0.067-0.073-0.1c-0.037-0.047-0.076-0.096-0.119-0.143   c-0.042-0.05-0.087-0.101-0.132-0.149c-0.033-0.037-0.069-0.071-0.103-0.107c-0.009-0.009-0.018-0.018-0.026-0.027   c-0.007-0.006-0.014-0.014-0.023-0.022c-0.051-0.053-0.11-0.106-0.169-0.16c-0.065-0.059-0.132-0.116-0.201-0.172   c-0.033-0.025-0.065-0.048-0.098-0.073c-0.027-0.022-0.056-0.043-0.082-0.063c-0.039-0.028-0.074-0.057-0.111-0.084   c-0.101-0.071-0.208-0.134-0.312-0.2c-0.059-0.037-0.115-0.078-0.175-0.113c-0.016-0.009-0.026-0.018-0.042-0.026   c-0.094-0.053-0.19-0.104-0.286-0.153c-0.07-0.035-0.138-0.068-0.204-0.1c-0.029-0.013-0.061-0.024-0.089-0.038   c-0.007-0.001-0.012-0.006-0.021-0.008c-0.022-0.01-0.044-0.021-0.066-0.029c-0.057-0.024-0.111-0.046-0.167-0.068   c-0.054-0.021-0.108-0.041-0.16-0.06c-0.053-0.019-0.106-0.037-0.16-0.054c-0.042-0.015-0.085-0.027-0.129-0.041l-0.003-0.001   c-0.009-0.003-0.019-0.005-0.027-0.008c-0.051-0.015-0.102-0.029-0.155-0.043c-0.053-0.014-0.102-0.026-0.154-0.039   c-0.05-0.01-0.101-0.021-0.154-0.033c-0.048-0.009-0.098-0.019-0.148-0.027c-0.021-0.004-0.044-0.007-0.064-0.011   c-0.006,0-0.007,0-0.011,0c-0.025-0.003-0.05-0.008-0.073-0.011c-0.047-0.006-0.099-0.014-0.146-0.019   c-0.048-0.005-0.098-0.009-0.146-0.013c-0.047-0.005-0.095-0.007-0.145-0.009c-0.047-0.001-0.095-0.004-0.143-0.004   c-0.018,0-0.035,0-0.051,0l-0.03,0.058c-0.057-0.032-0.109-0.066-0.171-0.093c-1.589-0.668-2.822-1.917-3.472-3.513   c-0.379-0.929-0.507-1.908-0.438-2.879c0.646-1.269,1.271-2.489,1.855-3.638c0.03-0.062,0.057-0.125,0.082-0.191   c0.017-0.052,0.03-0.106,0.046-0.161c0.001-0.009,0.001-0.018,0.003-0.024c0.002-0.007,0.002-0.014,0.005-0.021   c0.006-0.033,0.013-0.065,0.018-0.1c0.005-0.042,0.012-0.087,0.014-0.13c0.001-0.041,0.001-0.083,0.001-0.125   c0-0.018-0.001-0.036-0.001-0.052c0-0.006,0-0.011,0-0.017c-0.002-0.018-0.002-0.037-0.004-0.054   c-0.005-0.04-0.008-0.078-0.013-0.116c-0.006-0.04-0.011-0.078-0.02-0.117c-0.007-0.037-0.014-0.075-0.025-0.114   c-0.003-0.016-0.007-0.032-0.012-0.047c0-0.004-0.002-0.009-0.002-0.014c-0.007-0.017-0.01-0.036-0.016-0.054   c-0.011-0.038-0.023-0.075-0.037-0.113c-0.012-0.039-0.026-0.077-0.044-0.115c-0.012-0.04-0.03-0.078-0.048-0.118   c-0.012-0.028-0.026-0.055-0.039-0.085c-0.007-0.011-0.014-0.021-0.018-0.034c-0.02-0.039-0.042-0.079-0.063-0.12   c-0.021-0.041-0.046-0.081-0.07-0.122c-0.025-0.042-0.051-0.083-0.078-0.125c-0.031-0.044-0.062-0.087-0.092-0.131   c-0.005-0.005-0.009-0.01-0.01-0.015c-0.009-0.009-0.015-0.017-0.021-0.024c-0.021-0.032-0.046-0.064-0.069-0.094   C89.11,3.722,89.07,3.674,89.03,3.626c-0.043-0.051-0.089-0.101-0.135-0.15c-0.032-0.036-0.069-0.071-0.102-0.105   c-0.01-0.008-0.016-0.016-0.025-0.024c-0.007-0.008-0.014-0.017-0.022-0.025c-0.055-0.054-0.115-0.109-0.174-0.161   c-0.064-0.06-0.132-0.118-0.202-0.174c-0.032-0.024-0.064-0.047-0.094-0.072c-0.026-0.02-0.055-0.041-0.083-0.063   c-0.041-0.03-0.078-0.061-0.119-0.089c-0.097-0.069-0.2-0.129-0.301-0.193c-0.062-0.039-0.12-0.081-0.184-0.117   c-0.014-0.008-0.026-0.019-0.043-0.026c-0.094-0.053-0.19-0.105-0.287-0.154c-0.068-0.035-0.136-0.068-0.206-0.1   c-0.027-0.013-0.05-0.023-0.076-0.034c-0.009-0.003-0.02-0.008-0.028-0.012c-0.024-0.01-0.046-0.022-0.07-0.032   c-0.057-0.023-0.111-0.045-0.166-0.066c-0.056-0.021-0.109-0.042-0.164-0.062c-0.053-0.019-0.104-0.036-0.157-0.054   c-0.039-0.012-0.079-0.024-0.118-0.036c-0.004-0.002-0.009-0.003-0.013-0.004c-0.009-0.003-0.017-0.006-0.026-0.008   c-0.053-0.015-0.106-0.031-0.159-0.044c-0.049-0.015-0.102-0.026-0.151-0.038c-0.053-0.012-0.102-0.023-0.153-0.033   C85.722,1.74,85.67,1.73,85.623,1.722c-0.023-0.003-0.043-0.006-0.062-0.01c-0.004-0.001-0.009-0.001-0.013-0.003   c-0.024-0.002-0.051-0.007-0.074-0.01c-0.05-0.007-0.097-0.013-0.145-0.019s-0.097-0.009-0.145-0.013   c-0.048-0.005-0.096-0.007-0.145-0.009c-0.048-0.002-0.094-0.003-0.142-0.004c-0.018,0-0.035,0-0.053,0L37.651,1.657   c-0.053,0-0.107,0.001-0.162,0.001c-0.085,0.002-0.171,0.007-0.254,0.011c-0.088,0.006-0.174,0.012-0.259,0.021   c-0.091,0.008-0.174,0.019-0.263,0.031c-0.078,0.01-0.155,0.024-0.229,0.038c-0.004,0.002-0.009,0.002-0.012,0.003   c-0.011,0.001-0.02,0.002-0.03,0.005c-0.098,0.019-0.191,0.04-0.286,0.062c-0.103,0.026-0.202,0.054-0.298,0.085   c-0.117,0.036-0.228,0.077-0.335,0.12c-0.013,0.006-0.022,0.013-0.034,0.018c-0.018,0.005-0.032,0.013-0.044,0.021   c-0.109,0.046-0.215,0.093-0.312,0.146c-0.116,0.061-0.206,0.139-0.309,0.208c-0.073,0.051-0.15,0.095-0.219,0.15   c-0.209,0.169-0.4,0.354-0.548,0.561c-0.087,0.119-0.165,0.242-0.229,0.372L3.415,63.185c0,0.002,0,0.004-0.004,0.008l-0.005,0.013   c0-0.002,0.002-0.004,0.005-0.006c-0.443,0.865-0.422,1.986,0.161,3.187l4.883,10.063c0.674,1.389,1.975,2.663,3.515,3.562   c1.521,0.901,3.338,1.474,5.029,1.474l8.115-0.002v10.735l9.445,6.127l9.445-6.127V81.483l20.191-0.002   c1.148,0,1.93-0.477,2.189-1.203c-0.024,0.074,20.201-39.576,30.341-59.475c0.029-0.061,0.058-0.124,0.08-0.189   c0.021-0.053,0.036-0.106,0.048-0.161c0.002-0.01,0.002-0.019,0.006-0.028c0.002-0.004,0.002-0.009,0.002-0.013   c0.007-0.035,0.012-0.069,0.018-0.105c0.009-0.042,0.012-0.085,0.012-0.13c0.006-0.04,0.006-0.083,0.006-0.125   C96.896,20.034,96.893,20.017,96.891,20z M62.353,74.277l0.004-0.006c-0.734,1.203-1.589,1.653-2.563,1.653h1.706h0.016l0,0   c-0.008,0-0.011,0-0.016,0H44.004v-4.384H25.114v4.386H17.84c-0.958-0.02-2.746,0.146-3.454-1.152l-2.565-5.289   c-0.533-1.102-0.055-2.569,1.178-2.569l44.127-0.004c1.117,0,1.879-0.452,2.16-1.141c-0.017,0.036,15.462-30.315,26.13-51.245   c1.028,2.139,2.766,3.814,4.963,4.753L62.353,74.277z"/>
</g>
</svg>