<svg xmlns="http://www.w3.org/2000/svg" xmlns:xlink="http://www.w3.org/1999/xlink" version="1.1" id="&#1057;&#1083;&#1086;&#1081;_1" x="0px" y="0px" width="100px" height="100px" viewBox="0 0 100 100" enable-background="new 0 0 100 100" xml:space="preserve">
<g>
	<path d="M87,83.238H52c-2.2,0-4,1.8-4,4V89c0,2.2,1.8,4,4,4h35c2.2,0,4-1.8,4-4v-1.762C91,85.038,89.2,83.238,87,83.238z"/>
	<path d="M87,70H52c-2.2,0-4,1.8-4,4v1.761c0,2.2,1.8,4,4,4h35c2.2,0,4-1.8,4-4V74C91,71.8,89.2,70,87,70z"/>
	<path d="M87,50.146h-2.335L73.303,37.203c1.384-1.304,2.253-3.147,2.253-5.194c0-3.427-2.424-6.298-5.646-6.989v-1.716   c0.899-0.538,1.508-1.513,1.508-2.637c0-1.351-0.874-2.486-2.083-2.903V9.778c1.768-0.448,3.083-2.037,3.083-3.945   c0-2.255-1.829-4.083-4.083-4.083c-2.105,0-3.818,1.6-4.04,3.646l-33.94,11.257c-0.521-0.682-1.144-1.282-1.854-1.766V11.75   c0-2.2-1.8-4-4-4s-4,1.8-4,4v2.564c-2.637,1.287-4.461,3.974-4.495,7.097L3.37,25.602c-1.048,0.348-1.616,1.479-1.269,2.528   C2.38,28.969,3.161,29.5,4,29.5c0.208,0,0.421-0.033,0.63-0.102l12.333-4.09c0.794,1.464,2.036,2.645,3.537,3.377V80H15   c-2.2,0-4,1.8-4,4v5c0,2.2,1.8,4,4,4h19c2.2,0,4-1.8,4-4v-5c0-2.2-1.8-4-4-4h-5.5V28.113c2.112-1.44,3.5-3.864,3.5-6.613   c0-0.391-0.037-0.772-0.092-1.148L65.886,9.083c0.427,0.322,0.914,0.561,1.448,0.696v7.985c-1.209,0.417-2.084,1.552-2.084,2.903   c0,1.186,0.677,2.204,1.659,2.719v4.476h1.5c2.286,0,4.146,1.86,4.146,4.147c0,1.15-0.472,2.19-1.229,2.942L69.92,33.35   c-0.001-0.001-0.002-0.001-0.002-0.002c-0.001,0-0.001-0.001-0.002-0.002c-0.057-0.064-0.129-0.103-0.197-0.148   c-0.04-0.027-0.074-0.067-0.117-0.088c-0.104-0.05-0.215-0.074-0.327-0.086c-0.015-0.001-0.028-0.01-0.043-0.011   c-0.12-0.008-0.24,0.01-0.357,0.046c-0.007,0.002-0.015,0-0.022,0.003c-0.074,0.025-0.14,0.076-0.208,0.119   c-0.044,0.028-0.095,0.042-0.136,0.078c-0.001,0.001-0.001,0.002-0.002,0.003c-0.001,0-0.002,0-0.002,0.001l-0.834,0.741   c-0.413,0.367-0.45,0.999-0.084,1.412c0.198,0.223,0.473,0.336,0.748,0.336c0.236,0,0.474-0.083,0.664-0.252l0.082-0.073   l0.48,0.548c-0.368,0.107-0.749,0.183-1.151,0.183c-2.287,0-4.147-1.86-4.147-4.147c0-0.829-0.672-1.5-1.5-1.5s-1.5,0.671-1.5,1.5   c0,3.941,3.206,7.147,7.147,7.147c1.172,0,2.274-0.289,3.252-0.791l10.341,11.78H56.37l8.652-9.883   c0.364-0.416,0.322-1.047-0.093-1.411c-0.417-0.363-1.049-0.322-1.411,0.094l-9.806,11.2H52c-2.2,0-4,1.8-4,4v1.762   c0,2.2,1.8,4,4,4h35c2.2,0,4-1.8,4-4v-1.762C91,51.945,89.2,50.146,87,50.146z"/>
</g>
</svg>