<?xml version="1.0" encoding="utf-8"?>
<!-- Generator: Adobe Illustrator 18.1.1, SVG Export Plug-In . SVG Version: 6.00 Build 0)  -->
<!DOCTYPE svg PUBLIC "-//W3C//DTD SVG 1.1//EN" "http://www.w3.org/Graphics/SVG/1.1/DTD/svg11.dtd">
<svg version="1.1" id="Layer_1" xmlns="http://www.w3.org/2000/svg" xmlns:xlink="http://www.w3.org/1999/xlink" x="0px" y="0px"
	 viewBox="0 0 226 80" enable-background="new 0 0 226 80" xml:space="preserve">
<g>
	<path fill="#464547" d="M42.9,35.8l0,14.5c0,3.7,1.8,5.5,5.5,5.5h1.6c3.7,0,5.5-1.8,5.5-5.5v-7.1h8.5V50c0,9.3-4.7,14.1-14.1,14.1
		h-1.8c-9.3,0-14.1-4.7-14.1-13V15.5c0-10.4,4.7-15.2,14.1-15.2h1.8c9.3,0,14.1,4.7,14.1,14.1l0,21.3H42.9z M42.9,27.3h12.5V14.1
		c0-3.7-1.8-5.5-5.5-5.5h-1.4c-3.7,0-5.5,1.8-5.5,5.5V27.3z"/>
	<path fill="#464547" d="M69.8,1.1h8.8v4c2.1-2.2,5.7-4.7,10.7-4.7c7.5,0,11.2,5,11.2,12.3v39c0,7.4-3.7,12.3-11.2,12.3
		c-5.1,0-8.6-2.4-10.7-4.5v20.1h-8.8V1.1z M78.6,52.5c2.4,2.1,5.2,3.2,8.1,3.2c3.2,0,5.1-1.5,5.1-5.1V13.8c0-3.6-1.8-5.1-5.1-5.1
		c-2.9,0-5.7,1.2-8.1,3.2V52.5z"/>
	<path fill="#464547" d="M105.8,41.7c0-7.7,2.5-10.8,9.2-13.1l11.8-4V14.1c0-3.7-1.8-5.7-5.5-5.7h-1.4c-3.7,0-5.5,2-5.5,5.7v8.8
		h-8.5v-8.5c0-9.3,4.7-14.1,14.1-14.1h1.7c9.3,0,14.1,4.7,14.1,14.1v48.9h-8.8v-3.9c-2.4,2.3-5.7,4.6-10.7,4.6c-7,0-10.3-4-10.3-11
		V41.7z M126.8,52.8V32.3l-8,3c-3.2,1.3-4.3,2.9-4.3,6.5v9.5c0,3,1.5,4.5,4.3,4.5C121.5,55.7,123.9,54.8,126.8,52.8z"/>
	<path fill="#464547" d="M171,63.3h-8.8V13.2c0-3.1-1.5-4.5-4.2-4.5c-2.4,0-5,0.9-8.1,3.1v51.5h-8.8V1.1h8.8v4
		c2.5-2.4,5.9-4.7,10.7-4.7c4.5,0,7.5,1.8,9.1,5.1c3.1-2.7,6.8-5.1,11.9-5.1c6.8,0,10.3,4.2,10.3,11v52h-8.8V13.2
		c0-3.1-1.5-4.5-4.2-4.5c-2.4,0-5,0.9-8.1,3.1V63.3z"/>
	<path fill="#00B5D1" d="M22.9,6.8v11.5L8.2,32.3l14.7,13.8v11.7L0.4,36.6v-8.4L22.9,6.8z"/>
	<path fill="#00B5D1" d="M225.6,28.2v8.4l-22.5,21.2V46.1l14.7-13.8l-14.7-14.1V6.8L225.6,28.2z"/>
</g>
</svg>
