<?xml version="1.0" encoding="utf-8"?>
<!-- Generator: Adobe Illustrator 17.0.0, SVG Export Plug-In . SVG Version: 6.00 Build 0)  -->
<!DOCTYPE svg PUBLIC "-//W3C//DTD SVG 1.1//EN" "http://www.w3.org/Graphics/SVG/1.1/DTD/svg11.dtd">
<svg version="1.1" id="Слой_1" xmlns="http://www.w3.org/2000/svg" xmlns:xlink="http://www.w3.org/1999/xlink" x="0px" y="0px"
	 width="1280px" height="260.976px" viewBox="0 0 1280 260.976" enable-background="new 0 0 1280 260.976" xml:space="preserve">
<g>
	<g>
		<g>
			<path fill="#009757" d="M1116.728,136.56c-0.006-37.423-14.948-54.876-61.362-54.876c-46.383,0-61.325,17.453-61.344,54.876
				v0.074c0,36.845,15.355,54.618,61.344,54.618c46.011,0,61.362-17.773,61.362-54.618V136.56z M1055.366,169.109
				c-27.367,0-35.245-10.049-35.245-32.432v-0.117c0-21.718,7.502-32.383,35.245-32.383c27.773,0,35.263,10.665,35.263,32.383v0.117
				C1090.629,159.059,1082.745,169.109,1055.366,169.109z"/>
			<path fill="#009757" d="M1216,83.302v71.443l-46.027-62.796c-3.883-4.886-8.206-8.647-17.083-8.647
				c-8.154,0-18.234,6.45-18.234,18.696v88.268h26.807v-71.431l45.817,63.012c3.994,5.428,8.117,8.419,17.293,8.419
				c8.16,0,18.229-5.853,18.229-18.702V83.302H1216z"/>
			<path fill="#009757" d="M820.969,95.229c-4.489-9.729-13.419-14.475-22.007-14.475l0,0h-0.012l0,0
				c-8.604,0-17.533,4.745-21.995,14.475l-43.804,94.97h28.493l9.545-22.573h55.531l9.56,22.573h28.494L820.969,95.229z
				 M780.278,146.234l16.49-38.808c0.52-1.218,1.468-1.538,2.182-1.538h0.012l0,0c0.711,0,1.674,0.32,2.179,1.538l16.506,38.808
				H780.278z"/>
			<path fill="#009757" d="M451.7,63.948c-12.546,0-20.549,6.69-26.488,20.142l-34.924,80.446L355.345,84.09
				c-5.944-13.452-13.952-20.142-26.505-20.142c-11.736,0-23.869,8.407-23.869,26.66v99.591h26.767V93.334l35.152,79.763
				c4.733,11.145,12.327,18.143,23.373,18.155l0,0h0.025l0,0l0,0c11.05-0.012,18.653-7.009,23.38-18.155l35.14-79.763v96.865h26.77
				V90.607C475.577,72.354,463.435,63.948,451.7,63.948z"/>
			<path fill="#009757" d="M524.564,167.601c-1.305,0-2.302-1.052-2.302-2.296v-19.072h66.784v-21.792h-66.784v-16.253
				c0-1.243,0.997-2.301,2.302-2.301h66.058V83.302h-79.234c-9.286,0-15.957,7.761-15.957,15.933v75.018
				c0,8.191,6.671,15.945,15.957,15.945h79.234v-22.598H524.564z"/>
			<path fill="#009757" d="M907.699,190.063v-43.959h66.803v-21.804h-66.803V91.364c0-1.255,1.021-2.301,2.301-2.301h66.052V66.484
				h-79.225c-9.271,0-15.942,7.735-15.942,15.926v107.653H907.699z"/>
			<path fill="#009757" d="M692.472,132.713v32.992c0,1.224-1.003,2.289-2.293,2.289h-26.047
				c-21.041-0.345-29.484-10.044-29.804-31.146c0.32-20.438,7.859-30.641,29.933-30.949v0.055h54.895V83.37h-54.895l0,0
				c-39.115,0.197-55.229,16.831-56.008,52.186l-0.036,2.77l0.036,0.049c0.843,34.309,16.918,51.159,54.901,51.725v0.025h40.205
				c9.274,0,15.933-7.754,15.933-15.927v-41.485H692.472z"/>
		</g>
		<g>
			<g>
				<g>
					<path fill="#009757" d="M157.263,25.196v106.423v4.142v0.068l-0.018,0.025c-0.043,4.788-3.945,8.659-8.745,8.659h-4.123h-9.078
						l0,0c-0.658,0-1.187,0.523-1.187,1.182v92.711c3.267,0.296,6.566,0.462,9.917,0.462c59.23,0,107.232-48.02,107.232-107.248
						C251.261,76.878,210.244,31.719,157.263,25.196z M155.072,190.119c-7.397,0-13.413-6-13.413-13.41
						c0-7.391,6.016-13.391,13.413-13.391c7.41,0,13.41,6,13.41,13.391C168.482,184.119,162.482,190.119,155.072,190.119z
						 M186.514,190.119c-7.397,0-13.398-6-13.398-13.41c0-7.391,6.001-13.391,13.398-13.391c7.4,0,13.398,6,13.398,13.391
						C199.911,184.119,193.914,190.119,186.514,190.119z M217.931,190.119c-7.398,0-13.404-6-13.404-13.41
						c0-7.391,6.006-13.391,13.404-13.391c7.397,0,13.403,6,13.403,13.391C231.334,184.119,225.328,190.119,217.931,190.119z"/>
					<path fill="#009757" d="M144.029,24.383c-59.236,0-107.238,48.008-107.238,107.235c0,51.405,36.173,94.36,84.44,104.81v-96.231
						l0.006-0.006c0.105-4.641,3.803-8.388,8.413-8.56v-0.013h4.462h9.083c0.628,0,1.144-0.492,1.175-1.114l0.006-106.103h1.48
						C145.25,24.402,144.635,24.383,144.029,24.383z M123.471,112.811c-7.403,0-13.41-6-13.41-13.397
						c0-7.41,6.006-13.416,13.41-13.416c7.403,0,13.398,6.006,13.398,13.416C136.869,106.811,130.875,112.811,123.471,112.811z"/>
				</g>
			</g>
		</g>
	</g>
</g>
</svg>
