<?xml version="1.0" encoding="UTF-8" ?>
<!DOCTYPE svg PUBLIC "-//W3C//DTD SVG 1.1//EN" "http://www.w3.org/Graphics/SVG/1.1/DTD/svg11.dtd">
<svg width="2201pt" height="454pt" viewBox="0 0 2201 454" version="1.1" xmlns="http://www.w3.org/2000/svg">
<path fill="#ffffff" d=" M 0.00 0.00 L 1972.12 0.00 C 1984.26 12.29 1996.62 24.35 2008.67 36.73 C 1996.97 48.96 1985.25 61.17 1973.69 73.53 C 1995.64 73.76 2017.66 78.06 2037.65 87.28 C 2067.60 100.83 2092.90 124.33 2108.64 153.19 C 2127.25 186.87 2132.21 227.72 2122.26 264.88 C 2110.31 311.13 2075.16 350.48 2030.68 367.79 C 2023.88 370.75 2016.59 372.30 2009.63 374.71 C 2004.25 379.27 1999.61 384.66 1994.50 389.52 C 1985.93 398.20 1977.11 406.65 1968.71 415.50 C 1980.44 427.13 1992.04 438.89 2003.80 450.48 C 2039.32 445.80 2073.74 432.73 2103.19 412.29 C 2132.66 392.03 2157.15 364.65 2174.13 333.20 C 2190.22 303.60 2199.26 270.31 2201.00 236.70 L 2201.00 454.00 L 1484.30 454.00 L 1484.08 452.80 C 1523.92 451.31 1563.16 438.47 1596.56 416.77 C 1626.72 397.19 1652.16 370.37 1670.03 339.15 C 1686.07 311.27 1695.99 279.88 1698.88 247.84 C 1700.10 236.59 1699.63 225.27 1699.73 213.98 C 1699.68 155.15 1699.81 96.32 1699.66 37.49 C 1675.16 37.58 1650.65 37.47 1626.15 37.54 C 1626.18 93.37 1626.16 149.20 1626.17 205.02 C 1626.26 224.07 1626.58 243.37 1621.92 261.98 C 1613.80 296.69 1592.92 328.17 1564.26 349.33 C 1534.36 371.65 1496.06 382.44 1458.92 378.64 C 1421.55 375.23 1385.87 357.14 1360.73 329.35 C 1336.83 303.17 1322.35 268.46 1321.22 232.98 C 1320.51 224.66 1321.24 216.34 1321.13 208.01 C 1320.67 172.02 1321.56 136.01 1320.88 100.01 C 1321.36 79.19 1320.77 58.38 1321.14 37.57 C 1296.55 37.45 1271.96 37.58 1247.37 37.50 C 1247.32 103.65 1247.28 169.79 1247.39 235.93 C 1248.85 276.40 1261.62 316.36 1283.80 350.23 C 1304.78 382.39 1334.02 409.15 1368.01 427.06 C 1393.63 440.69 1421.93 449.08 1450.78 452.08 C 1455.04 452.61 1459.26 453.38 1463.52 454.00 L 476.79 454.00 C 518.94 452.58 560.72 439.47 595.74 415.87 C 633.55 390.70 663.04 353.63 679.86 311.49 C 657.05 302.17 634.13 293.14 611.21 284.11 C 599.73 312.78 579.61 338.01 553.74 354.97 C 519.87 377.60 476.70 385.52 436.96 376.73 C 398.55 368.51 363.90 344.60 342.30 311.84 C 325.02 285.93 316.01 254.59 317.02 223.46 C 317.77 194.83 326.89 166.50 342.99 142.82 C 361.63 115.06 389.62 93.74 421.36 83.23 C 449.15 73.91 479.65 72.93 507.98 80.40 C 539.42 88.58 568.00 107.18 588.29 132.54 C 601.94 149.58 612.13 169.52 617.24 190.78 C 554.62 190.83 491.99 190.71 429.37 190.85 C 429.34 215.46 429.37 240.07 429.35 264.69 C 518.16 264.70 606.96 264.67 695.76 264.70 C 695.47 240.11 697.04 215.31 692.75 190.95 C 686.34 151.58 669.11 114.06 643.55 83.44 C 621.93 57.43 594.48 36.28 563.72 22.20 C 517.58 0.85 464.14 -4.08 414.84 8.28 C 378.06 17.35 343.70 35.98 315.92 61.73 C 269.71 104.00 242.21 166.24 243.25 228.97 C 243.05 268.49 254.07 307.90 274.03 341.95 C 295.31 378.27 326.90 408.47 364.16 428.07 C 394.33 444.04 428.18 452.83 462.28 454.00 L 0.00 454.00 L 0.00 417.31 C 24.53 417.33 49.05 417.27 73.58 417.35 C 73.80 353.23 73.57 289.11 73.70 224.99 C 74.32 195.08 83.86 165.42 101.07 140.93 C 119.61 114.27 146.81 93.70 177.63 83.40 C 193.29 78.08 209.83 75.44 226.36 75.41 C 226.34 50.80 226.37 26.19 226.35 1.59 C 185.29 1.57 144.27 12.87 109.20 34.25 C 70.01 57.88 38.30 93.68 19.61 135.45 C 7.88 161.47 1.33 189.74 0.00 218.24 L 0.00 0.00 Z" />
<path fill="#28448a" d=" M 1972.12 0.00 L 1984.74 0.00 C 2022.78 1.80 2060.40 13.10 2092.84 33.12 C 2124.51 52.49 2151.30 79.77 2170.09 111.80 C 2188.76 143.41 2199.34 179.66 2201.00 216.31 L 2201.00 236.70 C 2199.26 270.31 2190.22 303.60 2174.13 333.20 C 2157.15 364.65 2132.66 392.03 2103.19 412.29 C 2073.74 432.73 2039.32 445.80 2003.80 450.48 C 1992.04 438.89 1980.44 427.13 1968.71 415.50 C 1977.11 406.65 1985.93 398.20 1994.50 389.52 C 1999.61 384.66 2004.25 379.27 2009.63 374.71 C 2016.59 372.30 2023.88 370.75 2030.68 367.79 C 2075.16 350.48 2110.31 311.13 2122.26 264.88 C 2132.21 227.72 2127.25 186.87 2108.64 153.19 C 2092.90 124.33 2067.60 100.83 2037.65 87.28 C 2017.66 78.06 1995.64 73.76 1973.69 73.53 C 1985.25 61.17 1996.97 48.96 2008.67 36.73 C 1996.62 24.35 1984.26 12.29 1972.12 0.00 Z" />
<path fill="#ffffff" d=" M 1984.74 0.00 L 2201.00 0.00 L 2201.00 216.31 C 2199.34 179.66 2188.76 143.41 2170.09 111.80 C 2151.30 79.77 2124.51 52.49 2092.84 33.12 C 2060.40 13.10 2022.78 1.80 1984.74 0.00 Z" />
<path fill="#333332" d=" M 109.20 34.25 C 144.27 12.87 185.29 1.57 226.35 1.59 C 226.37 26.19 226.34 50.80 226.36 75.41 C 209.83 75.44 193.29 78.08 177.63 83.40 C 146.81 93.70 119.61 114.27 101.07 140.93 C 83.86 165.42 74.32 195.08 73.70 224.99 C 73.57 289.11 73.80 353.23 73.58 417.35 C 49.05 417.27 24.53 417.33 0.00 417.31 L 0.00 218.24 C 1.33 189.74 7.88 161.47 19.61 135.45 C 38.30 93.68 70.01 57.88 109.20 34.25 Z" />
<path fill="#333332" d=" M 414.84 8.28 C 464.14 -4.08 517.58 0.85 563.72 22.20 C 594.48 36.28 621.93 57.43 643.55 83.44 C 669.11 114.06 686.34 151.58 692.75 190.95 C 697.04 215.31 695.47 240.11 695.76 264.70 C 606.96 264.67 518.16 264.70 429.35 264.69 C 429.37 240.07 429.34 215.46 429.37 190.85 C 491.99 190.71 554.62 190.83 617.24 190.78 C 612.13 169.52 601.94 149.58 588.29 132.54 C 568.00 107.18 539.42 88.58 507.98 80.40 C 479.65 72.93 449.15 73.91 421.36 83.23 C 389.62 93.74 361.63 115.06 342.99 142.82 C 326.89 166.50 317.77 194.83 317.02 223.46 C 316.01 254.59 325.02 285.93 342.30 311.84 C 363.90 344.60 398.55 368.51 436.96 376.73 C 476.70 385.52 519.87 377.60 553.74 354.97 C 579.61 338.01 599.73 312.78 611.21 284.11 C 634.13 293.14 657.05 302.17 679.86 311.49 C 663.04 353.63 633.55 390.70 595.74 415.87 C 560.72 439.47 518.94 452.58 476.79 454.00 L 462.28 454.00 C 428.18 452.83 394.33 444.04 364.16 428.07 C 326.90 408.47 295.31 378.27 274.03 341.95 C 254.07 307.90 243.05 268.49 243.25 228.97 C 242.21 166.24 269.71 104.00 315.92 61.73 C 343.70 35.98 378.06 17.35 414.84 8.28 Z" />
<path fill="#333332" d=" M 867.99 25.80 C 897.93 10.38 931.38 1.62 965.07 0.97 C 968.70 0.71 972.34 0.04 976.00 0.48 C 982.79 1.49 989.70 1.16 996.50 2.16 C 1047.95 7.65 1097.17 31.69 1133.13 68.88 C 1172.93 108.93 1196.57 164.56 1197.69 221.02 C 1197.96 286.10 1197.72 351.18 1197.81 416.26 C 1173.24 416.31 1148.66 416.29 1124.09 416.27 C 1123.41 410.52 1124.47 404.75 1123.99 399.00 C 1123.61 394.33 1124.11 389.67 1124.13 385.00 C 1123.60 355.34 1124.06 325.68 1123.91 296.02 C 1124.43 288.68 1123.39 281.33 1124.09 273.99 C 1124.19 264.31 1123.44 254.61 1124.10 244.93 C 1123.76 232.94 1124.48 220.89 1122.89 208.95 C 1119.91 183.41 1110.19 158.73 1095.11 137.92 C 1078.11 114.31 1054.21 95.76 1027.13 85.12 C 999.29 74.10 968.17 71.67 938.94 78.09 C 905.89 85.25 875.48 103.87 854.01 129.99 C 841.89 144.57 832.56 161.45 826.60 179.44 C 820.90 196.35 818.77 214.24 818.85 232.02 C 818.87 293.44 818.85 354.85 818.86 416.27 C 794.33 416.27 769.80 416.35 745.27 416.23 C 745.33 350.83 745.26 285.44 745.31 220.04 C 746.36 178.17 759.67 136.74 782.93 101.92 C 804.26 69.92 833.78 43.39 867.99 25.80 Z" />
<path fill="#4a90c3" d=" M 1844.42 41.30 C 1873.80 20.47 1908.26 6.86 1943.96 2.01 C 1945.92 1.38 1947.23 3.28 1948.51 4.41 C 1959.17 15.38 1970.33 25.89 1980.82 37.01 C 1972.80 45.91 1964.35 54.45 1956.10 63.15 C 1951.43 67.72 1947.45 73.10 1942.34 77.14 C 1913.19 83.66 1885.96 98.70 1865.28 120.29 C 1838.94 147.22 1823.21 184.29 1822.40 221.98 C 1821.19 259.53 1834.76 297.25 1859.45 325.55 C 1879.82 349.28 1907.67 366.45 1938.02 373.98 C 1950.79 377.19 1963.99 378.54 1977.15 378.57 C 1965.55 391.19 1952.80 402.73 1941.07 415.22 C 1944.66 420.10 1949.59 423.85 1953.68 428.32 C 1961.47 436.29 1969.62 443.92 1977.21 452.10 C 1937.27 453.01 1897.24 442.32 1862.60 422.51 C 1830.33 404.06 1802.71 377.55 1782.97 346.05 C 1763.35 314.85 1751.50 278.77 1749.04 241.98 C 1746.19 202.68 1753.88 162.64 1771.25 127.26 C 1787.86 93.04 1813.33 63.20 1844.42 41.30 Z" />
<path fill="#333332" d=" M 1247.39 235.93 C 1247.28 169.79 1247.32 103.65 1247.37 37.50 C 1271.96 37.58 1296.55 37.45 1321.14 37.57 C 1320.77 58.38 1321.36 79.19 1320.88 100.01 C 1321.56 136.01 1320.67 172.02 1321.13 208.01 C 1321.24 216.34 1320.51 224.66 1321.22 232.98 C 1322.35 268.46 1336.83 303.17 1360.73 329.35 C 1385.87 357.14 1421.55 375.23 1458.92 378.64 C 1496.06 382.44 1534.36 371.65 1564.26 349.33 C 1592.92 328.17 1613.80 296.69 1621.92 261.98 C 1626.58 243.37 1626.26 224.07 1626.17 205.02 C 1626.16 149.20 1626.18 93.37 1626.15 37.54 C 1650.65 37.47 1675.16 37.58 1699.66 37.49 C 1699.81 96.32 1699.68 155.15 1699.73 213.98 C 1699.63 225.27 1700.10 236.59 1698.88 247.84 C 1695.99 279.88 1686.07 311.27 1670.03 339.15 C 1652.16 370.37 1626.72 397.19 1596.56 416.77 C 1563.16 438.47 1523.92 451.31 1484.08 452.80 C 1472.98 453.43 1461.86 452.83 1450.78 452.08 C 1421.93 449.08 1393.63 440.69 1368.01 427.06 C 1334.02 409.15 1304.78 382.39 1283.80 350.23 C 1261.62 316.36 1248.85 276.40 1247.39 235.93 Z" />
<path fill="#dfdfdf" d=" M 1450.78 452.08 C 1461.86 452.83 1472.98 453.43 1484.08 452.80 L 1484.30 454.00 L 1463.52 454.00 C 1459.26 453.38 1455.04 452.61 1450.78 452.08 Z" />
</svg>
