<svg xmlns="http://www.w3.org/2000/svg" version="1.1" viewBox="0 0 697.397 167.918">
  <g transform="translate(-151.302 -165.536)">
    <clipPath id="a">
      <path transform="matrix(1 0 0 -1 0 524)" d="M0 524h1000V0H0z"/>
    </clipPath>
    <g clip-path="url(#a)">
      <path d="M791.139 290.582l-24.122 40.49h-28.9l37.737-62.403-36.303-57.402h32.004l22.928 36.204 20.54-36.204h28.422l-33.915 58.117 39.169 61.688h-32.004zm-128.015-30.25h39.647v-2.38c0-15.007-4.3-26.678-18.391-26.678-13.613 0-20.54 10.004-21.256 29.058m27.466 73.122c-36.303 0-56.843-20.245-56.843-61.927 0-36.203 16.48-62.642 51.11-62.642 28.423 0 46.812 15.72 46.812 57.402v15.006h-68.545c1.195 20.007 9.076 29.772 29.854 29.772 13.853 0 28.66-5.24 37.497-11.194v23.104c-8.358 5.715-21.733 10.48-39.885 10.48m-150.705-61.45c0 27.151 7.644 39.06 23.167 39.06 16.002 0 24.123-12.147 24.123-40.014 0-27.629-7.642-39.777-22.93-39.777-16.24 0-24.36 12.386-24.36 40.73m-29.376 0c0-40.015 19.107-63.119 46.572-63.119 12.42 0 22.929 5.717 30.094 16.435v-59.784h28.42v165.536h-26.27l-1.434-15.48c-7.643 11.67-18.63 17.862-32.004 17.862-26.75 0-45.378-21.912-45.378-61.45m-85.98 59.068h-28.422V211.267h27.705l.717 10.004h1.432c5.733-5.716 15.763-11.909 32.72-11.909 23.167 0 32.72 10.48 32.72 34.298v87.412h-28.42v-84.554c0-9.05-4.538-13.338-14.57-13.338-10.27 0-18.628 5.478-23.882 11.91zm-80.01-55.972h-4.06c-24.362 0-34.153 5.002-34.153 19.054 0 10.72 5.97 17.864 17.912 17.864 10.03 0 16.718-4.288 20.3-9.527zm28.42 26.676c0 9.766.479 19.532 1.434 29.296h-27.705c-.955-2.382-1.91-6.43-2.15-9.526h-1.193c-5.494 5.716-12.66 11.194-29.377 11.194-21.973 0-36.78-13.576-36.78-37.87 0-24.296 19.345-38.586 62.813-38.586h4.538v-6.67c0-12.862-6.21-17.625-19.823-17.625-14.57 0-31.287 6.193-38.931 11.91v-23.58c8.599-5.003 23.406-10.957 42.274-10.957 30.094 0 44.9 10.956 44.9 40.014z"/>
      <path d="M207.189 331.072V314.4c0-22.627-2.627-33.82-11.703-53.352l-44.184-95.51h30.57l37.498 81.695c10.986 23.82 15.763 36.204 15.763 63.595v20.245zM225.102 245.565l34.87-80.029h29.376L254 245.566z" fill="#fc3f1d"/>
    </g>
  </g>
</svg>
