<svg xmlns="http://www.w3.org/2000/svg" viewBox="0 0 101.7 84" enable-background="new 0 0 101.7 84"><g fill="#FEFEFE"><path d="M0 13h23.8v7h-23.8zM0 0h23.8v7h-23.8zM42.7 25.9h-42.7v7h41.1c4.5 0 15 .1 18.9 6.4v-3.9c-1.9-6.2-7.5-9.5-17.3-9.5zM42.8 38.9h-42.8v7h41.1c10 0 16.3.4 18.9 1.8v-3.1c-2-4.9-10.4-5.7-17.2-5.7zM42.7 71.9h-42.7v-7h41.1c4.5 0 15-.1 18.9-6.4v3.9c-1.9 6.2-7.5 9.5-17.3 9.5zM42.8 58.9h-42.8v-7h41.1c10 0 16.3-.4 18.9-1.8v3.1c-2 4.9-10.4 5.7-17.2 5.7zM70.4 84h31.4v-4.3h-30.5c-2.7 0-9.1-.1-11.4-3.8v2.4c1.1 3.7 4.5 5.7 10.5 5.7zM70.3 76.1h31.4v-4.3h-30.4c-6.1 0-9.9-.2-11.4-1.1v1.9c1.2 3 6.3 3.5 10.4 3.5z"/></g></svg>
